<?xml version="1.0" encoding="utf-8"?>
<!-- Generator: Adobe Illustrator 27.7.0, SVG Export Plug-In . SVG Version: 6.00 Build 0)  -->
<svg version="1.1" xmlns="http://www.w3.org/2000/svg" xmlns:xlink="http://www.w3.org/1999/xlink" x="0px" y="0px"
	 viewBox="0 0 288 288" style="enable-background:new 0 0 288 288;" xml:space="preserve">
<style type="text/css">
	.st0{display:none;}
	.st1{display:inline;}
	.st2{fill:none;}
	.st3{fill:#007AC3;}
	.st4{fill:#FFFFFF;}
	.st5{fill:#85BC20;}
	.st6{fill:#E5202E;}
</style>
<g id="Layer_1">
	<circle cx="144" cy="144" r="144"/>
</g>
<g id="Law_Firm" class="st0">
	<g class="st1">
		<rect x="53.4" y="49.4" class="st2" width="181.3" height="181.3"/>
		<g id="c_00000112592824689098488780000012317286852001102740_">
			<polygon class="st3" points="155.7,189.6 132.3,189.6 132.3,122.4 135.6,122.4 135.6,186.2 152.4,186.2 152.4,122.4 155.7,122.4 
							"/>
			<polygon class="st3" points="105.4,189.6 81.9,189.6 81.9,122.4 85.3,122.4 85.3,186.2 102,186.2 102,122.4 105.4,122.4 			"/>
			<polygon class="st3" points="206.1,189.6 182.6,189.6 182.6,122.4 186,122.4 186,186.2 202.7,186.2 202.7,122.4 206.1,122.4 			
				"/>
			<rect x="76" y="115.7" class="st4" width="35.2" height="3.4"/>
			<rect x="126.4" y="115.7" class="st4" width="35.2" height="3.4"/>
			<rect x="71" y="196.3" class="st5" width="146" height="3.4"/>
			<rect x="176.7" y="115.7" class="st4" width="35.2" height="3.4"/>
			<rect x="60.9" y="206.3" class="st5" width="166.2" height="3.4"/>
			<polygon class="st4" points="226.3,113 144,73.1 61.7,113 60.2,110 144,69.4 227.8,110 			"/>
			<path class="st6" d="M144,104.8c-5.1,0-9.2-4.1-9.2-9.2s4.1-9.2,9.2-9.2s9.2,4.1,9.2,9.2S149.1,104.8,144,104.8z M144,89.7
				c-3.3,0-5.9,2.6-5.9,5.9s2.6,5.9,5.9,5.9s5.9-2.6,5.9-5.9S147.3,89.7,144,89.7z"/>
		</g>
	</g>
</g>
<g id="Accounting" class="st0">
	<g id="primary_illustration" class="st1">
		<path class="st4" d="M207.8,72.8h-80.3c-6.1,0-11,5-11,11v9.4h3.1v-9.4c0-4.3,3.5-7.9,7.9-7.9h80.3c4.3,0,7.9,3.5,7.9,7.9v120.4
			c0,4.3-3.5,7.9-7.9,7.9h-80.3c-4.3,0-7.9-3.5-7.9-7.9v-7.1h-3.1v7.1c0,6.1,5,11,11,11h80.3c6.1,0,11-5,11-11V83.8
			C218.8,77.7,213.8,72.8,207.8,72.8z"/>
		<path class="st5" d="M181.8,168c-4.8,0-8.7-5-8.7-11s3.9-11,8.7-11c4.8,0,8.7,5,8.7,11S186.6,168,181.8,168z M181.8,149.1
			c-3,0-5.5,3.6-5.5,7.9c0,4.3,2.5,7.9,5.5,7.9c3,0,5.5-3.6,5.5-7.9S184.8,149.1,181.8,149.1z"/>
		<path class="st5" d="M153.4,142c-4.8,0-8.7-5-8.7-11s3.9-11,8.7-11s8.7,5,8.7,11S158.2,142,153.4,142z M153.4,123.1
			c-3,0-5.5,3.6-5.5,7.9c0,4.3,2.5,7.9,5.5,7.9c3,0,5.5-3.6,5.5-7.9C159,126.8,156.4,123.1,153.4,123.1z"/>
		
			<rect x="137.8" y="142.5" transform="matrix(0.5547 -0.8321 0.8321 0.5547 -45.2052 203.5909)" class="st5" width="59.6" height="3.1"/>
		<path class="st3" d="M138.5,194H69.2V96.4h69.3V194z M72.4,190.8h63V99.5h-63V190.8z"/>
		<polygon class="st6" points="99.1,143.6 91.3,143.6 91.3,135.7 88.1,135.7 88.1,143.6 80.2,143.6 80.2,146.8 88.1,146.8 
			88.1,154.6 91.3,154.6 91.3,146.8 99.1,146.8 		"/>
		<rect x="80.2" y="169.6" class="st6" width="18.9" height="3.1"/>
		<rect x="108.6" y="169.6" class="st6" width="18.9" height="3.1"/>
		<polygon class="st6" points="126.2,139.2 124,137 118,143 112,137 109.8,139.2 115.8,145.2 109.8,151.2 112,153.4 118,147.4 
			124,153.4 126.2,151.2 120.2,145.2 		"/>
		<rect x="77.9" y="122.4" class="st6" width="52" height="3.1"/>
		<circle class="st6" cx="118" cy="161.7" r="2.4"/>
		<circle class="st6" cx="118" cy="180.6" r="2.4"/>
	</g>
</g>
<g id="SmallBiz">
	<g>
		<rect x="54" y="54" class="st2" width="180" height="180"/>
		<g id="c_00000112595011339225430980000011132405492502436259_">
			<rect x="59" y="216.5" class="st4" width="170" height="3.3"/>
			<polygon class="st4" points="158.2,88.2 154.8,88.2 154.8,72.3 113.2,72.3 113.2,88.2 109.8,88.2 109.8,69 158.2,69 			"/>
			<polygon class="st4" points="143.2,213.2 139.8,213.2 139.8,187.3 128.2,187.3 128.2,213.2 124.8,213.2 124.8,184 143.2,184 			
				"/>
			<path class="st3" d="M168.2,117.3H99.8v-15.8h68.3V117.3z M103.2,114h61.7v-9.2h-61.7V114z"/>
			<path class="st3" d="M168.2,144.8H99.8V129h68.3V144.8z M103.2,141.5h61.7v-9.2h-61.7V141.5z"/>
			<polygon class="st4" points="223.2,213.2 219.8,213.2 219.8,67.8 168.2,79.5 168.2,88.2 164.8,88.2 164.8,76.8 223.2,63.6 			"/>
			<path class="st6" d="M210.7,102.3h-15.8V86.5h15.8V102.3z M198.2,99h9.2v-9.2h-9.2V99z"/>
			<path class="st6" d="M210.7,129.8h-15.8V114h15.8V129.8z M198.2,126.5h9.2v-9.2h-9.2V126.5z"/>
			<path class="st6" d="M210.7,157.3h-15.8v-15.8h15.8V157.3z M198.2,154h9.2v-9.2h-9.2V154z"/>
			<path class="st6" d="M210.7,184.8h-15.8V169h15.8V184.8z M198.2,181.5h9.2v-9.2h-9.2V181.5z"/>
			<g>
				<path class="st4" d="M89.8,91.5V153c1.3,1.2,2.4,2.7,3.3,4.3V94.8h81.7v118.3h3.3V91.5H89.8z"/>
				<path class="st4" d="M89.8,200.4v12.8h3.3v-13.4C92.1,200.1,91,200.2,89.8,200.4z"/>
			</g>
			<path class="st5" d="M91,160.4c-2.2-5.4-7.4-8.9-13.3-8.9c-7.6,0-13.9,6-14.3,13.5c-3.8,3.5-6,8.4-6,13.7
				c0,10.2,8.3,18.7,18.7,18.7c1.2,0,2.6-0.2,3.8-0.4v16.2h3.3v-16.3c1.2,0.2,2.6,0.4,3.8,0.4c10.2,0,18.7-8.3,18.7-18.7
				C105.7,169.8,99.6,162.2,91,160.4L91,160.4z M87,193.9c-1.7,0-3.3-0.2-5-0.8l-0.6-0.2l-0.6,0.2c-1.7,0.6-3.3,0.8-5,0.8
				c-8.4,0-15.3-6.8-15.3-15.3c0-4.5,1.9-8.8,5.3-11.7l0.6-0.5v-0.7c0.1-6,5-10.9,11.1-10.9c4.8,0,9,3.1,10.5,7.6l0.3,0.9l1,0.2
				c7.4,1.2,12.8,7.6,12.8,15.1C102.3,187.1,95.5,193.9,87,193.9L87,193.9z"/>
			<path class="st3" d="M99.8,156.5v4.2c1.2,0.8,2.3,1.8,3.3,2.9v-3.8h61.7v9.2h-58.1c0.5,1.1,0.9,2.2,1.3,3.3h60.1v-15.8H99.8z"/>
		</g>
	</g>
</g>
</svg>
